<?xml version="1.0" encoding="UTF-8" standalone="no"?>
<!DOCTYPE svg PUBLIC "-//W3C//DTD SVG 1.1//EN"
 "http://www.w3.org/Graphics/SVG/1.1/DTD/svg11.dtd">
<!-- Generated by graphviz version 2.43.0 (0)
 -->
<!-- Title: SOC_OKII Pages: 1 -->
<svg width="999pt" height="1212pt"
 viewBox="0.00 0.00 999.00 1212.00" xmlns="http://www.w3.org/2000/svg" xmlns:xlink="http://www.w3.org/1999/xlink">
<g id="graph0" class="graph" transform="scale(1 1) rotate(0) translate(4 1208)">
<title>SOC_OKII</title>
<polygon fill="white" stroke="transparent" points="-4,4 -4,-1208 995,-1208 995,4 -4,4"/>
<g id="clust1" class="cluster">
<title>cluster_DMZ</title>
<polygon fill="#fad5d8" stroke="#d0021b" points="251,-591 251,-828 493,-828 493,-591 251,-591"/>
<text text-anchor="middle" x="372" y="-812.8" font-family="Times,serif" font-size="14.00">DMZ / OT‑IT шлюз</text>
</g>
<g id="clust2" class="cluster">
<title>cluster_P1</title>
<polygon fill="#e0e0e0" stroke="#a0a0a0" points="8,-905 8,-1196 231,-1196 231,-905 8,-905"/>
<text text-anchor="middle" x="119.5" y="-1180.8" font-family="Times,serif" font-size="14.00">Физический объект 1</text>
</g>
<g id="clust3" class="cluster">
<title>cluster_P2</title>
<polygon fill="#e0e0e0" stroke="#a0a0a0" points="8,-606 8,-897 231,-897 231,-606 8,-606"/>
<text text-anchor="middle" x="119.5" y="-881.8" font-family="Times,serif" font-size="14.00">Физический объект 2</text>
</g>
<g id="clust4" class="cluster">
<title>cluster_P3</title>
<polygon fill="#e0e0e0" stroke="#a0a0a0" points="8,-307 8,-598 231,-598 231,-307 8,-307"/>
<text text-anchor="middle" x="119.5" y="-582.8" font-family="Times,serif" font-size="14.00">Физический объект 3</text>
</g>
<g id="clust5" class="cluster">
<title>cluster_P4</title>
<polygon fill="#e0e0e0" stroke="#a0a0a0" points="8,-8 8,-299 231,-299 231,-8 8,-8"/>
<text text-anchor="middle" x="119.5" y="-283.8" font-family="Times,serif" font-size="14.00">Физический объект 4</text>
</g>
<g id="clust6" class="cluster">
<title>cluster_SOC</title>
<polygon fill="#fad5d8" stroke="#d0021b" points="513,-510 513,-693 665,-693 665,-510 513,-510"/>
<text text-anchor="middle" x="589" y="-677.8" font-family="Times,serif" font-size="14.00">Центральный SOC</text>
</g>
<!-- NGFW1 -->
<g id="node1" class="node">
<title>NGFW1</title>
<path fill="#d0021b" stroke="black" d="M473,-635C473,-635 430,-635 430,-635 424,-635 418,-629 418,-623 418,-623 418,-611 418,-611 418,-605 424,-599 430,-599 430,-599 473,-599 473,-599 479,-599 485,-605 485,-611 485,-611 485,-623 485,-623 485,-629 479,-635 473,-635"/>
<text text-anchor="middle" x="451.5" y="-613.3" font-family="Arial" font-size="14.00" fill="white">NGFW1</text>
</g>
<!-- SIEM -->
<g id="node30" class="node">
<title>SIEM</title>
<path fill="#d0021b" stroke="black" d="M603.5,-662C603.5,-662 573.5,-662 573.5,-662 567.5,-662 561.5,-656 561.5,-650 561.5,-650 561.5,-638 561.5,-638 561.5,-632 567.5,-626 573.5,-626 573.5,-626 603.5,-626 603.5,-626 609.5,-626 615.5,-632 615.5,-638 615.5,-638 615.5,-650 615.5,-650 615.5,-656 609.5,-662 603.5,-662"/>
<text text-anchor="middle" x="588.5" y="-640.3" font-family="Arial" font-size="14.00" fill="white">SIEM</text>
</g>
<!-- NGFW1&#45;&gt;SIEM -->
<g id="edge22" class="edge">
<title>NGFW1&#45;&gt;SIEM</title>
<path fill="none" stroke="black" d="M485.18,-623.54C505.21,-627.54 530.86,-632.67 551.48,-636.8"/>
<polygon fill="black" stroke="black" points="550.95,-640.26 561.44,-638.79 552.32,-633.39 550.95,-640.26"/>
</g>
<!-- SOAR -->
<g id="node31" class="node">
<title>SOAR</title>
<path fill="#d0021b" stroke="black" d="M604.5,-608C604.5,-608 572.5,-608 572.5,-608 566.5,-608 560.5,-602 560.5,-596 560.5,-596 560.5,-584 560.5,-584 560.5,-578 566.5,-572 572.5,-572 572.5,-572 604.5,-572 604.5,-572 610.5,-572 616.5,-578 616.5,-584 616.5,-584 616.5,-596 616.5,-596 616.5,-602 610.5,-608 604.5,-608"/>
<text text-anchor="middle" x="588.5" y="-586.3" font-family="Arial" font-size="14.00" fill="white">SOAR</text>
</g>
<!-- NGFW1&#45;&gt;SOAR -->
<g id="edge23" class="edge">
<title>NGFW1&#45;&gt;SOAR</title>
<path fill="none" stroke="black" d="M485.18,-610.46C504.81,-606.54 529.84,-601.53 550.23,-597.45"/>
<polygon fill="black" stroke="black" points="551.01,-600.87 560.12,-595.48 549.63,-594 551.01,-600.87"/>
</g>
<!-- NGFW2 -->
<g id="node2" class="node">
<title>NGFW2</title>
<path fill="#d0021b" stroke="black" d="M342,-797C342,-797 299,-797 299,-797 293,-797 287,-791 287,-785 287,-785 287,-773 287,-773 287,-767 293,-761 299,-761 299,-761 342,-761 342,-761 348,-761 354,-767 354,-773 354,-773 354,-785 354,-785 354,-791 348,-797 342,-797"/>
<text text-anchor="middle" x="320.5" y="-775.3" font-family="Arial" font-size="14.00" fill="white">NGFW2</text>
</g>
<!-- NIDS -->
<g id="node3" class="node">
<title>NIDS</title>
<path fill="#d0021b" stroke="black" d="M335.5,-743C335.5,-743 305.5,-743 305.5,-743 299.5,-743 293.5,-737 293.5,-731 293.5,-731 293.5,-719 293.5,-719 293.5,-713 299.5,-707 305.5,-707 305.5,-707 335.5,-707 335.5,-707 341.5,-707 347.5,-713 347.5,-719 347.5,-719 347.5,-731 347.5,-731 347.5,-737 341.5,-743 335.5,-743"/>
<text text-anchor="middle" x="320.5" y="-721.3" font-family="Arial" font-size="14.00" fill="white">NIDS</text>
</g>
<!-- DPI -->
<g id="node4" class="node">
<title>DPI</title>
<path fill="#d0021b" stroke="black" d="M342,-689C342,-689 299,-689 299,-689 293,-689 287,-683 287,-677 287,-677 287,-665 287,-665 287,-659 293,-653 299,-653 299,-653 342,-653 342,-653 348,-653 354,-659 354,-665 354,-665 354,-677 354,-677 354,-683 348,-689 342,-689"/>
<text text-anchor="middle" x="320.5" y="-667.3" font-family="Arial" font-size="14.00" fill="white">ICS‑DPI</text>
</g>
<!-- VPNc -->
<g id="node5" class="node">
<title>VPNc</title>
<path fill="#d0021b" stroke="black" d="M370,-635C370,-635 271,-635 271,-635 265,-635 259,-629 259,-623 259,-623 259,-611 259,-611 259,-605 265,-599 271,-599 271,-599 370,-599 370,-599 376,-599 382,-605 382,-611 382,-611 382,-623 382,-623 382,-629 376,-635 370,-635"/>
<text text-anchor="middle" x="320.5" y="-613.3" font-family="Arial" font-size="14.00" fill="white">VPN concentrator</text>
</g>
<!-- VPNc&#45;&gt;NGFW1 -->
<g id="edge21" class="edge">
<title>VPNc&#45;&gt;NGFW1</title>
<path fill="none" stroke="black" d="M382.22,-617C390.86,-617 399.59,-617 407.79,-617"/>
<polygon fill="black" stroke="black" points="407.84,-620.5 417.84,-617 407.84,-613.5 407.84,-620.5"/>
</g>
<!-- ASU11 -->
<g id="node6" class="node">
<title>ASU11</title>
<path fill="#4a90e2" stroke="black" d="M62.5,-1165C62.5,-1165 32.5,-1165 32.5,-1165 26.5,-1165 20.5,-1159 20.5,-1153 20.5,-1153 20.5,-1141 20.5,-1141 20.5,-1135 26.5,-1129 32.5,-1129 32.5,-1129 62.5,-1129 62.5,-1129 68.5,-1129 74.5,-1135 74.5,-1141 74.5,-1141 74.5,-1153 74.5,-1153 74.5,-1159 68.5,-1165 62.5,-1165"/>
<text text-anchor="middle" x="47.5" y="-1143.3" font-family="Arial" font-size="14.00" fill="white">АСУ1</text>
</g>
<!-- LC1 -->
<g id="node11" class="node">
<title>LC1</title>
<path fill="#d0021b" stroke="black" d="M211,-1057C211,-1057 127,-1057 127,-1057 121,-1057 115,-1051 115,-1045 115,-1045 115,-1033 115,-1033 115,-1027 121,-1021 127,-1021 127,-1021 211,-1021 211,-1021 217,-1021 223,-1027 223,-1033 223,-1033 223,-1045 223,-1045 223,-1051 217,-1057 211,-1057"/>
<text text-anchor="middle" x="169" y="-1035.3" font-family="Arial" font-size="14.00" fill="white">Лог‑коллектор</text>
</g>
<!-- ASU11&#45;&gt;LC1 -->
<g id="edge1" class="edge">
<title>ASU11&#45;&gt;LC1</title>
<path fill="none" stroke="black" d="M69.21,-1128.74C72.49,-1125.82 75.84,-1122.83 79,-1120 99.76,-1101.36 123.08,-1080.13 140.64,-1064.08"/>
<polygon fill="black" stroke="black" points="143.26,-1066.43 148.28,-1057.09 138.53,-1061.26 143.26,-1066.43"/>
</g>
<!-- ASU12 -->
<g id="node7" class="node">
<title>ASU12</title>
<path fill="#4a90e2" stroke="black" d="M62.5,-1111C62.5,-1111 32.5,-1111 32.5,-1111 26.5,-1111 20.5,-1105 20.5,-1099 20.5,-1099 20.5,-1087 20.5,-1087 20.5,-1081 26.5,-1075 32.5,-1075 32.5,-1075 62.5,-1075 62.5,-1075 68.5,-1075 74.5,-1081 74.5,-1087 74.5,-1087 74.5,-1099 74.5,-1099 74.5,-1105 68.5,-1111 62.5,-1111"/>
<text text-anchor="middle" x="47.5" y="-1089.3" font-family="Arial" font-size="14.00" fill="white">АСУ2</text>
</g>
<!-- ASU12&#45;&gt;LC1 -->
<g id="edge2" class="edge">
<title>ASU12&#45;&gt;LC1</title>
<path fill="none" stroke="black" d="M74.72,-1081.15C87.58,-1075.34 103.5,-1068.14 118.53,-1061.35"/>
<polygon fill="black" stroke="black" points="120.07,-1064.5 127.74,-1057.19 117.18,-1058.12 120.07,-1064.5"/>
</g>
<!-- ASU13 -->
<g id="node8" class="node">
<title>ASU13</title>
<path fill="#4a90e2" stroke="black" d="M62.5,-1057C62.5,-1057 32.5,-1057 32.5,-1057 26.5,-1057 20.5,-1051 20.5,-1045 20.5,-1045 20.5,-1033 20.5,-1033 20.5,-1027 26.5,-1021 32.5,-1021 32.5,-1021 62.5,-1021 62.5,-1021 68.5,-1021 74.5,-1027 74.5,-1033 74.5,-1033 74.5,-1045 74.5,-1045 74.5,-1051 68.5,-1057 62.5,-1057"/>
<text text-anchor="middle" x="47.5" y="-1035.3" font-family="Arial" font-size="14.00" fill="white">АСУ3</text>
</g>
<!-- ASU13&#45;&gt;LC1 -->
<g id="edge3" class="edge">
<title>ASU13&#45;&gt;LC1</title>
<path fill="none" stroke="black" d="M74.72,-1039C83.68,-1039 94.12,-1039 104.71,-1039"/>
<polygon fill="black" stroke="black" points="104.87,-1042.5 114.87,-1039 104.87,-1035.5 104.87,-1042.5"/>
</g>
<!-- ASU14 -->
<g id="node9" class="node">
<title>ASU14</title>
<path fill="#4a90e2" stroke="black" d="M62.5,-1003C62.5,-1003 32.5,-1003 32.5,-1003 26.5,-1003 20.5,-997 20.5,-991 20.5,-991 20.5,-979 20.5,-979 20.5,-973 26.5,-967 32.5,-967 32.5,-967 62.5,-967 62.5,-967 68.5,-967 74.5,-973 74.5,-979 74.5,-979 74.5,-991 74.5,-991 74.5,-997 68.5,-1003 62.5,-1003"/>
<text text-anchor="middle" x="47.5" y="-981.3" font-family="Arial" font-size="14.00" fill="white">АСУ4</text>
</g>
<!-- ASU14&#45;&gt;LC1 -->
<g id="edge4" class="edge">
<title>ASU14&#45;&gt;LC1</title>
<path fill="none" stroke="black" d="M74.72,-996.85C87.58,-1002.66 103.5,-1009.86 118.53,-1016.65"/>
<polygon fill="black" stroke="black" points="117.18,-1019.88 127.74,-1020.81 120.07,-1013.5 117.18,-1019.88"/>
</g>
<!-- SCADA1 -->
<g id="node10" class="node">
<title>SCADA1</title>
<path fill="#4a90e2" stroke="black" d="M67,-949C67,-949 28,-949 28,-949 22,-949 16,-943 16,-937 16,-937 16,-925 16,-925 16,-919 22,-913 28,-913 28,-913 67,-913 67,-913 73,-913 79,-919 79,-925 79,-925 79,-937 79,-937 79,-943 73,-949 67,-949"/>
<text text-anchor="middle" x="47.5" y="-927.3" font-family="Arial" font-size="14.00" fill="white">SCADA</text>
</g>
<!-- LC1&#45;&gt;VPNc -->
<g id="edge17" class="edge">
<title>LC1&#45;&gt;VPNc</title>
<path fill="none" stroke="black" d="M180.36,-1020.97C194.56,-995.27 219.6,-946.21 231,-901 245,-845.45 216.95,-690.07 251,-644 251.47,-643.36 251.96,-642.74 252.46,-642.14"/>
<polygon fill="black" stroke="black" points="255.05,-644.5 259.83,-635.05 250.2,-639.46 255.05,-644.5"/>
</g>
<!-- ASU21 -->
<g id="node12" class="node">
<title>ASU21</title>
<path fill="#4a90e2" stroke="black" d="M62.5,-866C62.5,-866 32.5,-866 32.5,-866 26.5,-866 20.5,-860 20.5,-854 20.5,-854 20.5,-842 20.5,-842 20.5,-836 26.5,-830 32.5,-830 32.5,-830 62.5,-830 62.5,-830 68.5,-830 74.5,-836 74.5,-842 74.5,-842 74.5,-854 74.5,-854 74.5,-860 68.5,-866 62.5,-866"/>
<text text-anchor="middle" x="47.5" y="-844.3" font-family="Arial" font-size="14.00" fill="white">АСУ1</text>
</g>
<!-- LC2 -->
<g id="node17" class="node">
<title>LC2</title>
<path fill="#d0021b" stroke="black" d="M211,-758C211,-758 127,-758 127,-758 121,-758 115,-752 115,-746 115,-746 115,-734 115,-734 115,-728 121,-722 127,-722 127,-722 211,-722 211,-722 217,-722 223,-728 223,-734 223,-734 223,-746 223,-746 223,-752 217,-758 211,-758"/>
<text text-anchor="middle" x="169" y="-736.3" font-family="Arial" font-size="14.00" fill="white">Лог‑коллектор</text>
</g>
<!-- ASU21&#45;&gt;LC2 -->
<g id="edge5" class="edge">
<title>ASU21&#45;&gt;LC2</title>
<path fill="none" stroke="black" d="M69.21,-829.74C72.49,-826.82 75.84,-823.83 79,-821 99.76,-802.36 123.08,-781.13 140.64,-765.08"/>
<polygon fill="black" stroke="black" points="143.26,-767.43 148.28,-758.09 138.53,-762.26 143.26,-767.43"/>
</g>
<!-- ASU22 -->
<g id="node13" class="node">
<title>ASU22</title>
<path fill="#4a90e2" stroke="black" d="M62.5,-812C62.5,-812 32.5,-812 32.5,-812 26.5,-812 20.5,-806 20.5,-800 20.5,-800 20.5,-788 20.5,-788 20.5,-782 26.5,-776 32.5,-776 32.5,-776 62.5,-776 62.5,-776 68.5,-776 74.5,-782 74.5,-788 74.5,-788 74.5,-800 74.5,-800 74.5,-806 68.5,-812 62.5,-812"/>
<text text-anchor="middle" x="47.5" y="-790.3" font-family="Arial" font-size="14.00" fill="white">АСУ2</text>
</g>
<!-- ASU22&#45;&gt;LC2 -->
<g id="edge6" class="edge">
<title>ASU22&#45;&gt;LC2</title>
<path fill="none" stroke="black" d="M74.72,-782.15C87.58,-776.34 103.5,-769.14 118.53,-762.35"/>
<polygon fill="black" stroke="black" points="120.07,-765.5 127.74,-758.19 117.18,-759.12 120.07,-765.5"/>
</g>
<!-- ASU23 -->
<g id="node14" class="node">
<title>ASU23</title>
<path fill="#4a90e2" stroke="black" d="M62.5,-758C62.5,-758 32.5,-758 32.5,-758 26.5,-758 20.5,-752 20.5,-746 20.5,-746 20.5,-734 20.5,-734 20.5,-728 26.5,-722 32.5,-722 32.5,-722 62.5,-722 62.5,-722 68.5,-722 74.5,-728 74.5,-734 74.5,-734 74.5,-746 74.5,-746 74.5,-752 68.5,-758 62.5,-758"/>
<text text-anchor="middle" x="47.5" y="-736.3" font-family="Arial" font-size="14.00" fill="white">АСУ3</text>
</g>
<!-- ASU23&#45;&gt;LC2 -->
<g id="edge7" class="edge">
<title>ASU23&#45;&gt;LC2</title>
<path fill="none" stroke="black" d="M74.72,-740C83.68,-740 94.12,-740 104.71,-740"/>
<polygon fill="black" stroke="black" points="104.87,-743.5 114.87,-740 104.87,-736.5 104.87,-743.5"/>
</g>
<!-- ASU24 -->
<g id="node15" class="node">
<title>ASU24</title>
<path fill="#4a90e2" stroke="black" d="M62.5,-704C62.5,-704 32.5,-704 32.5,-704 26.5,-704 20.5,-698 20.5,-692 20.5,-692 20.5,-680 20.5,-680 20.5,-674 26.5,-668 32.5,-668 32.5,-668 62.5,-668 62.5,-668 68.5,-668 74.5,-674 74.5,-680 74.5,-680 74.5,-692 74.5,-692 74.5,-698 68.5,-704 62.5,-704"/>
<text text-anchor="middle" x="47.5" y="-682.3" font-family="Arial" font-size="14.00" fill="white">АСУ4</text>
</g>
<!-- ASU24&#45;&gt;LC2 -->
<g id="edge8" class="edge">
<title>ASU24&#45;&gt;LC2</title>
<path fill="none" stroke="black" d="M74.72,-697.85C87.58,-703.66 103.5,-710.86 118.53,-717.65"/>
<polygon fill="black" stroke="black" points="117.18,-720.88 127.74,-721.81 120.07,-714.5 117.18,-720.88"/>
</g>
<!-- SCADA2 -->
<g id="node16" class="node">
<title>SCADA2</title>
<path fill="#4a90e2" stroke="black" d="M67,-650C67,-650 28,-650 28,-650 22,-650 16,-644 16,-638 16,-638 16,-626 16,-626 16,-620 22,-614 28,-614 28,-614 67,-614 67,-614 73,-614 79,-620 79,-626 79,-626 79,-638 79,-638 79,-644 73,-650 67,-650"/>
<text text-anchor="middle" x="47.5" y="-628.3" font-family="Arial" font-size="14.00" fill="white">SCADA</text>
</g>
<!-- LC2&#45;&gt;VPNc -->
<g id="edge18" class="edge">
<title>LC2&#45;&gt;VPNc</title>
<path fill="none" stroke="black" d="M181.33,-721.72C195.35,-700.45 221.06,-665.49 251,-644 252.86,-642.67 254.79,-641.39 256.77,-640.16"/>
<polygon fill="black" stroke="black" points="258.75,-643.07 265.77,-635.13 255.34,-636.96 258.75,-643.07"/>
</g>
<!-- ASU31 -->
<g id="node18" class="node">
<title>ASU31</title>
<path fill="#4a90e2" stroke="black" d="M62.5,-567C62.5,-567 32.5,-567 32.5,-567 26.5,-567 20.5,-561 20.5,-555 20.5,-555 20.5,-543 20.5,-543 20.5,-537 26.5,-531 32.5,-531 32.5,-531 62.5,-531 62.5,-531 68.5,-531 74.5,-537 74.5,-543 74.5,-543 74.5,-555 74.5,-555 74.5,-561 68.5,-567 62.5,-567"/>
<text text-anchor="middle" x="47.5" y="-545.3" font-family="Arial" font-size="14.00" fill="white">АСУ1</text>
</g>
<!-- LC3 -->
<g id="node23" class="node">
<title>LC3</title>
<path fill="#d0021b" stroke="black" d="M211,-513C211,-513 127,-513 127,-513 121,-513 115,-507 115,-501 115,-501 115,-489 115,-489 115,-483 121,-477 127,-477 127,-477 211,-477 211,-477 217,-477 223,-483 223,-489 223,-489 223,-501 223,-501 223,-507 217,-513 211,-513"/>
<text text-anchor="middle" x="169" y="-491.3" font-family="Arial" font-size="14.00" fill="white">Лог‑коллектор</text>
</g>
<!-- ASU31&#45;&gt;LC3 -->
<g id="edge9" class="edge">
<title>ASU31&#45;&gt;LC3</title>
<path fill="none" stroke="black" d="M74.72,-537.15C87.58,-531.34 103.5,-524.14 118.53,-517.35"/>
<polygon fill="black" stroke="black" points="120.07,-520.5 127.74,-513.19 117.18,-514.12 120.07,-520.5"/>
</g>
<!-- ASU32 -->
<g id="node19" class="node">
<title>ASU32</title>
<path fill="#4a90e2" stroke="black" d="M62.5,-513C62.5,-513 32.5,-513 32.5,-513 26.5,-513 20.5,-507 20.5,-501 20.5,-501 20.5,-489 20.5,-489 20.5,-483 26.5,-477 32.5,-477 32.5,-477 62.5,-477 62.5,-477 68.5,-477 74.5,-483 74.5,-489 74.5,-489 74.5,-501 74.5,-501 74.5,-507 68.5,-513 62.5,-513"/>
<text text-anchor="middle" x="47.5" y="-491.3" font-family="Arial" font-size="14.00" fill="white">АСУ2</text>
</g>
<!-- ASU32&#45;&gt;LC3 -->
<g id="edge10" class="edge">
<title>ASU32&#45;&gt;LC3</title>
<path fill="none" stroke="black" d="M74.72,-495C83.68,-495 94.12,-495 104.71,-495"/>
<polygon fill="black" stroke="black" points="104.87,-498.5 114.87,-495 104.87,-491.5 104.87,-498.5"/>
</g>
<!-- ASU33 -->
<g id="node20" class="node">
<title>ASU33</title>
<path fill="#4a90e2" stroke="black" d="M62.5,-459C62.5,-459 32.5,-459 32.5,-459 26.5,-459 20.5,-453 20.5,-447 20.5,-447 20.5,-435 20.5,-435 20.5,-429 26.5,-423 32.5,-423 32.5,-423 62.5,-423 62.5,-423 68.5,-423 74.5,-429 74.5,-435 74.5,-435 74.5,-447 74.5,-447 74.5,-453 68.5,-459 62.5,-459"/>
<text text-anchor="middle" x="47.5" y="-437.3" font-family="Arial" font-size="14.00" fill="white">АСУ3</text>
</g>
<!-- ASU33&#45;&gt;LC3 -->
<g id="edge11" class="edge">
<title>ASU33&#45;&gt;LC3</title>
<path fill="none" stroke="black" d="M74.72,-452.85C87.58,-458.66 103.5,-465.86 118.53,-472.65"/>
<polygon fill="black" stroke="black" points="117.18,-475.88 127.74,-476.81 120.07,-469.5 117.18,-475.88"/>
</g>
<!-- ASU34 -->
<g id="node21" class="node">
<title>ASU34</title>
<path fill="#4a90e2" stroke="black" d="M62.5,-405C62.5,-405 32.5,-405 32.5,-405 26.5,-405 20.5,-399 20.5,-393 20.5,-393 20.5,-381 20.5,-381 20.5,-375 26.5,-369 32.5,-369 32.5,-369 62.5,-369 62.5,-369 68.5,-369 74.5,-375 74.5,-381 74.5,-381 74.5,-393 74.5,-393 74.5,-399 68.5,-405 62.5,-405"/>
<text text-anchor="middle" x="47.5" y="-383.3" font-family="Arial" font-size="14.00" fill="white">АСУ4</text>
</g>
<!-- ASU34&#45;&gt;LC3 -->
<g id="edge12" class="edge">
<title>ASU34&#45;&gt;LC3</title>
<path fill="none" stroke="black" d="M69.21,-405.26C72.49,-408.18 75.84,-411.17 79,-414 99.76,-432.64 123.08,-453.87 140.64,-469.92"/>
<polygon fill="black" stroke="black" points="138.53,-472.74 148.28,-476.91 143.26,-467.57 138.53,-472.74"/>
</g>
<!-- SCADA3 -->
<g id="node22" class="node">
<title>SCADA3</title>
<path fill="#4a90e2" stroke="black" d="M67,-351C67,-351 28,-351 28,-351 22,-351 16,-345 16,-339 16,-339 16,-327 16,-327 16,-321 22,-315 28,-315 28,-315 67,-315 67,-315 73,-315 79,-321 79,-327 79,-327 79,-339 79,-339 79,-345 73,-351 67,-351"/>
<text text-anchor="middle" x="47.5" y="-329.3" font-family="Arial" font-size="14.00" fill="white">SCADA</text>
</g>
<!-- LC3&#45;&gt;VPNc -->
<g id="edge19" class="edge">
<title>LC3&#45;&gt;VPNc</title>
<path fill="none" stroke="black" d="M192.06,-513C217.79,-534 260.45,-568.81 289.26,-592.32"/>
<polygon fill="black" stroke="black" points="287.39,-595.31 297.35,-598.92 291.82,-589.89 287.39,-595.31"/>
</g>
<!-- ASU41 -->
<g id="node24" class="node">
<title>ASU41</title>
<path fill="#4a90e2" stroke="black" d="M62.5,-268C62.5,-268 32.5,-268 32.5,-268 26.5,-268 20.5,-262 20.5,-256 20.5,-256 20.5,-244 20.5,-244 20.5,-238 26.5,-232 32.5,-232 32.5,-232 62.5,-232 62.5,-232 68.5,-232 74.5,-238 74.5,-244 74.5,-244 74.5,-256 74.5,-256 74.5,-262 68.5,-268 62.5,-268"/>
<text text-anchor="middle" x="47.5" y="-246.3" font-family="Arial" font-size="14.00" fill="white">АСУ1</text>
</g>
<!-- LC4 -->
<g id="node29" class="node">
<title>LC4</title>
<path fill="#d0021b" stroke="black" d="M211,-214C211,-214 127,-214 127,-214 121,-214 115,-208 115,-202 115,-202 115,-190 115,-190 115,-184 121,-178 127,-178 127,-178 211,-178 211,-178 217,-178 223,-184 223,-190 223,-190 223,-202 223,-202 223,-208 217,-214 211,-214"/>
<text text-anchor="middle" x="169" y="-192.3" font-family="Arial" font-size="14.00" fill="white">Лог‑коллектор</text>
</g>
<!-- ASU41&#45;&gt;LC4 -->
<g id="edge13" class="edge">
<title>ASU41&#45;&gt;LC4</title>
<path fill="none" stroke="black" d="M74.72,-238.15C87.58,-232.34 103.5,-225.14 118.53,-218.35"/>
<polygon fill="black" stroke="black" points="120.07,-221.5 127.74,-214.19 117.18,-215.12 120.07,-221.5"/>
</g>
<!-- ASU42 -->
<g id="node25" class="node">
<title>ASU42</title>
<path fill="#4a90e2" stroke="black" d="M62.5,-214C62.5,-214 32.5,-214 32.5,-214 26.5,-214 20.5,-208 20.5,-202 20.5,-202 20.5,-190 20.5,-190 20.5,-184 26.5,-178 32.5,-178 32.5,-178 62.5,-178 62.5,-178 68.5,-178 74.5,-184 74.5,-190 74.5,-190 74.5,-202 74.5,-202 74.5,-208 68.5,-214 62.5,-214"/>
<text text-anchor="middle" x="47.5" y="-192.3" font-family="Arial" font-size="14.00" fill="white">АСУ2</text>
</g>
<!-- ASU42&#45;&gt;LC4 -->
<g id="edge14" class="edge">
<title>ASU42&#45;&gt;LC4</title>
<path fill="none" stroke="black" d="M74.72,-196C83.68,-196 94.12,-196 104.71,-196"/>
<polygon fill="black" stroke="black" points="104.87,-199.5 114.87,-196 104.87,-192.5 104.87,-199.5"/>
</g>
<!-- ASU43 -->
<g id="node26" class="node">
<title>ASU43</title>
<path fill="#4a90e2" stroke="black" d="M62.5,-160C62.5,-160 32.5,-160 32.5,-160 26.5,-160 20.5,-154 20.5,-148 20.5,-148 20.5,-136 20.5,-136 20.5,-130 26.5,-124 32.5,-124 32.5,-124 62.5,-124 62.5,-124 68.5,-124 74.5,-130 74.5,-136 74.5,-136 74.5,-148 74.5,-148 74.5,-154 68.5,-160 62.5,-160"/>
<text text-anchor="middle" x="47.5" y="-138.3" font-family="Arial" font-size="14.00" fill="white">АСУ3</text>
</g>
<!-- ASU43&#45;&gt;LC4 -->
<g id="edge15" class="edge">
<title>ASU43&#45;&gt;LC4</title>
<path fill="none" stroke="black" d="M74.72,-153.85C87.58,-159.66 103.5,-166.86 118.53,-173.65"/>
<polygon fill="black" stroke="black" points="117.18,-176.88 127.74,-177.81 120.07,-170.5 117.18,-176.88"/>
</g>
<!-- ASU44 -->
<g id="node27" class="node">
<title>ASU44</title>
<path fill="#4a90e2" stroke="black" d="M62.5,-106C62.5,-106 32.5,-106 32.5,-106 26.5,-106 20.5,-100 20.5,-94 20.5,-94 20.5,-82 20.5,-82 20.5,-76 26.5,-70 32.5,-70 32.5,-70 62.5,-70 62.5,-70 68.5,-70 74.5,-76 74.5,-82 74.5,-82 74.5,-94 74.5,-94 74.5,-100 68.5,-106 62.5,-106"/>
<text text-anchor="middle" x="47.5" y="-84.3" font-family="Arial" font-size="14.00" fill="white">АСУ4</text>
</g>
<!-- ASU44&#45;&gt;LC4 -->
<g id="edge16" class="edge">
<title>ASU44&#45;&gt;LC4</title>
<path fill="none" stroke="black" d="M69.21,-106.26C72.49,-109.18 75.84,-112.17 79,-115 99.76,-133.64 123.08,-154.87 140.64,-170.92"/>
<polygon fill="black" stroke="black" points="138.53,-173.74 148.28,-177.91 143.26,-168.57 138.53,-173.74"/>
</g>
<!-- SCADA4 -->
<g id="node28" class="node">
<title>SCADA4</title>
<path fill="#4a90e2" stroke="black" d="M67,-52C67,-52 28,-52 28,-52 22,-52 16,-46 16,-40 16,-40 16,-28 16,-28 16,-22 22,-16 28,-16 28,-16 67,-16 67,-16 73,-16 79,-22 79,-28 79,-28 79,-40 79,-40 79,-46 73,-52 67,-52"/>
<text text-anchor="middle" x="47.5" y="-30.3" font-family="Arial" font-size="14.00" fill="white">SCADA</text>
</g>
<!-- LC4&#45;&gt;VPNc -->
<g id="edge20" class="edge">
<title>LC4&#45;&gt;VPNc</title>
<path fill="none" stroke="black" d="M182.23,-214.23C195.71,-234.99 217.29,-270.26 231,-303 273.53,-404.6 302.51,-533.03 313.99,-588.91"/>
<polygon fill="black" stroke="black" points="310.57,-589.67 315.99,-598.78 317.43,-588.28 310.57,-589.67"/>
</g>
<!-- SmSys -->
<g id="node33" class="node">
<title>SmSys</title>
<path fill="#7ed321" stroke="black" d="M979,-635C979,-635 705,-635 705,-635 699,-635 693,-629 693,-623 693,-623 693,-611 693,-611 693,-605 699,-599 705,-599 705,-599 979,-599 979,-599 985,-599 991,-605 991,-611 991,-611 991,-623 991,-623 991,-629 985,-635 979,-635"/>
<text text-anchor="middle" x="842" y="-613.3" font-family="Arial" font-size="14.00">Смежные системы\nПАЗ / Диспетчеризация</text>
</g>
<!-- SIEM&#45;&gt;SmSys -->
<g id="edge24" class="edge">
<title>SIEM&#45;&gt;SmSys</title>
<path fill="none" stroke="black" d="M615.94,-641.16C633.11,-639.32 657.05,-636.75 682.96,-633.97"/>
<polygon fill="black" stroke="black" points="683.4,-637.44 692.97,-632.89 682.65,-630.48 683.4,-637.44"/>
</g>
<!-- SOAR&#45;&gt;SmSys -->
<g id="edge25" class="edge">
<title>SOAR&#45;&gt;SmSys</title>
<path fill="none" stroke="black" d="M616.89,-592.94C633.92,-594.77 657.34,-597.28 682.66,-600"/>
<polygon fill="black" stroke="black" points="682.52,-603.51 692.83,-601.09 683.26,-596.55 682.52,-603.51"/>
</g>
<!-- Ticket -->
<g id="node32" class="node">
<title>Ticket</title>
<path fill="#d0021b" stroke="black" d="M612,-554C612,-554 565,-554 565,-554 559,-554 553,-548 553,-542 553,-542 553,-530 553,-530 553,-524 559,-518 565,-518 565,-518 612,-518 612,-518 618,-518 624,-524 624,-530 624,-530 624,-542 624,-542 624,-548 618,-554 612,-554"/>
<text text-anchor="middle" x="588.5" y="-532.3" font-family="Arial" font-size="14.00" fill="white">Ticketing</text>
</g>
</g>
</svg>
